<?xml version="1.0" encoding="UTF-8" standalone="no"?>
<svg
   xmlns:dc="http://purl.org/dc/elements/1.1/"
   xmlns:cc="http://creativecommons.org/ns#"
   xmlns:rdf="http://www.w3.org/1999/02/22-rdf-syntax-ns#"
   xmlns:svg="http://www.w3.org/2000/svg"
   xmlns="http://www.w3.org/2000/svg"
   xmlns:sodipodi="http://sodipodi.sourceforge.net/DTD/sodipodi-0.dtd"
   xmlns:inkscape="http://www.inkscape.org/namespaces/inkscape"
   width="590.93976"
   height="583.09473"
   viewBox="0 0 590.93976 583.09473"
   version="1.1"
   id="svg19"
   sodipodi:docname="Covtraca-Logo-Components.svg"
   inkscape:version="0.92.4 (fd57863, 2020-04-02)">
  <metadata
     id="metadata23">
    <rdf:RDF>
      <cc:Work
         rdf:about="">
        <dc:format>image/svg+xml</dc:format>
        <dc:type
           rdf:resource="http://purl.org/dc/dcmitype/StillImage" />
        <dc:title>Covtraca-Logo-Components</dc:title>
      </cc:Work>
    </rdf:RDF>
  </metadata>
  <sodipodi:namedview
     pagecolor="#009cde"
     bordercolor="#666666"
     borderopacity="1"
     objecttolerance="10"
     gridtolerance="10"
     guidetolerance="10"
     inkscape:pageopacity="0"
     inkscape:pageshadow="2"
     inkscape:window-width="1850"
     inkscape:window-height="1016"
     id="namedview21"
     showgrid="false"
     fit-margin-top="0"
     fit-margin-left="0"
     fit-margin-right="0"
     fit-margin-bottom="0"
     inkscape:zoom="0.34104046"
     inkscape:cx="295.5"
     inkscape:cy="237.09472"
     inkscape:window-x="70"
     inkscape:window-y="27"
     inkscape:window-maximized="1"
     inkscape:current-layer="svg19" />
  <!-- Generator: Sketch 52.6 (67491) - http://www.bohemiancoding.com/sketch -->
  <title
     id="title2">Covtraca-Logo-Components</title>
  <desc
     id="desc4">Created with Sketch.</desc>
  <defs
     id="defs11">
    <linearGradient
       x1="1.0676841"
       y1="-0.056289509"
       x2="0.07819131"
       y2="0.90123647"
       id="linearGradient-1">
      <stop
         stop-color="#FF4041"
         offset="0%"
         id="stop6" />
      <stop
         stop-color="#FF0073"
         offset="100%"
         id="stop8" />
    </linearGradient>
  </defs>
  <g
     id="Page-1"
     style="fill:none;fill-rule:evenodd;stroke:none;stroke-width:1">
    <g
       id="Covtraca-Logo-Components"
       transform="translate(-34)">
      <path
         d="m 621.82202,0 -13.11029,72.84059 c -11.80263,17.576955 -22.34867,26.365433 -31.63813,26.365433 -9.28945,0 -51.69833,0 -127.22665,0 L 389.34389,364.20264 c -4.05131,11.61042 -10.8348,17.41564 -20.35049,17.41564 -9.51568,0 -40.33776,0 -92.46626,0 L 345.3242,99.206023 293.4158,100.72771 c -91.1176,22.94719 -143.51894,78.08696 -157.20403,165.4193 -20.52764,130.99851 85.09051,218.66398 178.42098,218.66398 62.22031,0 107.29171,-13.02185 135.2142,-39.06556 46.08349,-31.91249 73.22396,-100.6645 81.42141,-206.25605 l 93.67143,0.17069 -13.03968,108.78579 C 581.61035,466.92142 516.88257,540.73009 417.71679,569.87186 268.96811,613.58451 118.72275,545.03886 62.136677,421.39987 5.6217423,297.9163 12.865759,64.33239 288.01409,4.9660318 c 0.34632,-0.074724 0.69308,-0.1491723 1.04025,-0.2233439 0.44963,-0.00658 0.78666,-0.01152 1.01108,-0.014807 C 362.16485,3.6719953 416.2814,2.8794664 452.41508,2.350294 488.07864,1.8280065 541.57397,1.0445751 612.90109,0"
         id="CovTraca-Logo"
         style="fill:#009cde"
         inkscape:connector-curvature="0" />
      <text
         id="COVTRACA"
         font-size="80"
         font-weight="normal"
         letter-spacing="10"
         style="font-weight:normal;font-size:80px;font-family:OpenSans, 'Open Sans';letter-spacing:10;fill:#009cde">
        <tspan
           x="88.582031"
           y="691"
           id="tspan14" />
      </text>
    </g>
  </g>
</svg>
